<?xml version="1.0" standalone="no"?>
<!DOCTYPE svg PUBLIC "-//W3C//DTD SVG 20010904//EN"
 "http://www.w3.org/TR/2001/REC-SVG-20010904/DTD/svg10.dtd">
<svg version="1.0" xmlns="http://www.w3.org/2000/svg"
 width="1909.000000pt" height="766.000000pt" viewBox="0 0 1909.000000 766.000000"
 preserveAspectRatio="xMidYMid meet">
<metadata>
Created by potrace 1.15, written by Peter Selinger 2001-2017
</metadata>
<g transform="translate(0.000000,766.000000) scale(0.100000,-0.100000)"
fill="#ffffff" stroke="none">
<path d="M3188 5786 l-623 -595 -644 0 c-608 -1 -643 -2 -637 -18 11 -30 377
-737 386 -747 5 -5 57 9 120 33 441 165 915 239 1680 261 195 6 372 12 393 13
l39 2 -136 179 c-75 98 -136 179 -136 180 0 1 106 -34 236 -77 157 -53 238
-76 243 -69 4 6 22 120 41 254 l34 242 109 -227 c61 -125 115 -227 120 -227 6
0 97 65 204 145 106 80 195 145 197 145 3 0 -31 -106 -76 -235 -44 -130 -79
-237 -77 -239 2 -2 117 -18 254 -37 l250 -35 -227 -111 c-126 -61 -228 -115
-228 -118 0 -5 213 -291 292 -392 5 -7 -97 24 -228 67 -131 44 -241 77 -245
72 -3 -4 -21 -116 -40 -250 l-33 -243 -113 225 c-62 125 -116 226 -120 226 -3
0 -93 -65 -200 -145 -106 -80 -195 -145 -197 -145 -3 0 20 75 51 166 30 91 53
167 51 169 -2 3 -76 -19 -164 -49 -628 -211 -1086 -470 -1476 -838 l-67 -63
-432 -1005 c-237 -553 -434 -1013 -436 -1022 -5 -17 36 -18 761 -18 421 0 766
3 766 7 0 3 -36 84 -81 180 -44 96 -79 177 -76 179 5 6 2199 6 2204 0 2 -2
-34 -85 -80 -185 l-85 -181 775 0 c734 0 775 1 770 18 -2 9 -201 473 -441
1031 -240 558 -435 1020 -434 1026 2 6 216 423 476 926 259 504 472 919 472
922 0 4 -289 7 -642 8 l-643 0 -623 595 c-395 377 -630 594 -642 594 -13 0
-248 -217 -642 -594z"/>
<path d="M10510 4605 l0 -315 -50 0 -50 0 0 -160 0 -160 50 0 50 0 0 -368 c0
-398 3 -430 56 -535 37 -72 134 -165 216 -205 85 -42 204 -72 285 -72 l63 0 0
170 0 170 -32 0 c-79 1 -169 57 -199 124 -17 37 -19 71 -19 379 l0 337 70 0
70 0 0 160 0 160 -70 0 -70 0 0 315 0 315 -185 0 -185 0 0 -315z"/>
<path d="M17190 4605 l0 -315 -50 0 -50 0 0 -160 0 -160 50 0 50 0 0 -368 c0
-398 3 -430 56 -535 37 -72 134 -165 216 -205 85 -42 204 -72 285 -72 l63 0 0
170 0 170 -32 0 c-79 1 -169 57 -199 124 -17 37 -19 71 -19 379 l0 337 70 0
70 0 0 160 0 160 -70 0 -70 0 0 315 0 315 -185 0 -185 0 0 -315z"/>
<path d="M6660 3860 l0 -1050 200 0 200 0 2 696 3 696 470 -696 469 -696 203
0 203 0 0 1050 0 1050 -200 0 -200 0 -2 -640 -3 -640 -470 640 -470 639 -202
1 -203 0 0 -1050z"/>
<path d="M13090 3860 l0 -1050 185 0 185 0 0 1050 0 1050 -185 0 -185 0 0
-1050z"/>
<path d="M16030 4325 c-174 -33 -290 -93 -406 -209 -91 -92 -148 -190 -186
-322 -32 -110 -32 -360 0 -475 73 -268 244 -441 513 -520 105 -30 348 -38 473
-15 165 31 343 114 421 195 l29 31 -119 120 -119 119 -31 -23 c-123 -94 -335
-139 -497 -105 -136 28 -246 115 -287 225 -12 30 -21 59 -21 64 0 6 215 10
580 10 l580 0 0 138 c0 181 -23 295 -85 420 -84 168 -226 280 -425 333 -101
27 -317 34 -420 14z m357 -349 c90 -32 151 -90 188 -178 30 -73 58 -68 -375
-68 -214 0 -390 3 -390 6 0 3 14 33 31 65 78 145 241 218 439 197 36 -4 84
-13 107 -22z"/>
<path d="M9210 4316 c-91 -19 -206 -65 -273 -110 -128 -85 -238 -241 -282
-401 -22 -79 -32 -339 -16 -432 29 -168 93 -300 198 -406 74 -75 148 -121 253
-158 273 -97 577 -41 738 134 l42 47 0 -90 0 -90 185 0 185 0 0 740 0 740
-185 0 -185 0 0 -85 0 -84 -48 48 c-56 56 -120 95 -211 129 -56 21 -87 25
-201 28 -88 2 -158 -1 -200 -10z m403 -359 c162 -74 247 -215 247 -407 0 -192
-85 -332 -247 -408 -53 -25 -68 -27 -178 -27 -114 0 -123 2 -185 31 -129 62
-206 161 -236 306 -43 202 44 405 209 490 78 40 118 48 227 45 90 -2 114 -7
163 -30z"/>
<path d="M11780 4316 c-91 -19 -206 -65 -273 -110 -128 -85 -238 -241 -282
-401 -22 -79 -32 -339 -16 -432 29 -168 93 -300 198 -406 74 -75 148 -121 253
-158 273 -97 577 -41 738 134 l42 47 0 -90 0 -90 185 0 185 0 0 740 0 740
-185 0 -185 0 0 -85 0 -84 -48 48 c-56 56 -120 95 -211 129 -56 21 -87 25
-201 28 -88 2 -158 -1 -200 -10z m403 -359 c162 -74 247 -215 247 -407 0 -192
-85 -332 -247 -408 -53 -25 -68 -27 -178 -27 -114 0 -123 2 -185 31 -129 62
-206 161 -236 306 -43 202 44 405 209 490 78 40 118 48 227 45 90 -2 114 -7
163 -30z"/>
<path d="M14450 4310 c-119 -16 -216 -57 -308 -129 l-52 -41 0 80 0 80 -180 0
-180 0 0 -745 0 -745 185 0 185 0 0 418 c0 467 3 495 66 590 64 97 172 152
298 153 39 0 85 -3 101 -7 102 -24 198 -113 236 -217 22 -60 23 -73 27 -499
l3 -438 185 0 184 0 0 458 c0 494 -3 526 -56 658 -112 284 -372 427 -694 384z"/>
<path d="M6660 2025 l0 -465 80 0 80 0 0 465 0 465 -80 0 -80 0 0 -465z"/>
<path d="M7810 2025 l0 -465 85 0 85 0 0 30 0 29 52 -32 c46 -29 60 -32 142
-35 107 -4 178 17 242 72 105 90 141 268 84 420 -40 106 -122 167 -251 187
-64 10 -83 9 -134 -5 -33 -10 -77 -28 -97 -42 l-38 -24 0 165 0 165 -85 0 -85
0 0 -465z m476 10 c66 -50 85 -162 41 -240 -57 -100 -208 -115 -289 -29 -123
132 -1 340 177 301 22 -4 54 -19 71 -32z"/>
<path d="M8817 2226 c-63 -17 -128 -63 -149 -106 -22 -43 -24 -140 -4 -178 35
-68 110 -106 241 -122 50 -6 100 -18 113 -26 30 -20 28 -58 -4 -83 -50 -39
-193 -19 -274 39 -16 12 -34 18 -40 15 -6 -4 -26 -30 -45 -58 l-35 -51 21 -22
c11 -12 48 -37 82 -55 58 -31 70 -34 174 -37 130 -5 193 11 250 61 46 40 63
82 63 152 0 132 -74 190 -269 210 -87 9 -121 27 -121 65 0 42 31 60 108 60 59
0 103 -13 145 -42 16 -12 24 -7 63 37 24 28 44 55 44 62 0 19 -57 54 -122 74
-69 22 -170 24 -241 5z"/>
<path d="M7180 2221 c-90 -28 -155 -86 -197 -176 -24 -52 -27 -73 -27 -155 -1
-131 20 -187 94 -262 67 -67 125 -88 239 -88 81 0 145 22 189 62 l22 21 0 -36
0 -37 85 0 85 0 0 340 0 340 -85 0 -85 0 0 -42 0 -42 -27 27 c-45 42 -93 57
-185 56 -46 0 -94 -4 -108 -8z m221 -157 c102 -52 130 -212 52 -304 -57 -69
-156 -84 -236 -37 -86 51 -116 181 -62 274 48 81 159 111 246 67z"/>
</g>
</svg>
